<svg xmlns="http://www.w3.org/2000/svg" viewBox="0 0 64 64">
  <defs>
    <linearGradient id="writer-cover" x1="11" y1="10" x2="53" y2="55" gradientUnits="userSpaceOnUse">
      <stop stop-color="#56D6B2"/>
      <stop offset=".52" stop-color="#23B996"/>
      <stop offset="1" stop-color="#168873"/>
    </linearGradient>
    <linearGradient id="writer-page" x1="20" y1="18" x2="46" y2="47" gradientUnits="userSpaceOnUse">
      <stop stop-color="#FFFFFF"/>
      <stop offset="1" stop-color="#E8FFF8"/>
    </linearGradient>
    <linearGradient id="writer-pen" x1="33" y1="37" x2="53" y2="17" gradientUnits="userSpaceOnUse">
      <stop stop-color="#FFE08A"/>
      <stop offset="1" stop-color="#FF9F68"/>
    </linearGradient>
  </defs>
  <rect x="10" y="9" width="44" height="47" rx="11" fill="url(#writer-cover)"/>
  <path d="M18 17.5c0-2.5 2-4.5 4.5-4.5H45a3 3 0 0 1 3 3v31.5a2.5 2.5 0 0 1-2.5 2.5h-23A4.5 4.5 0 0 0 18 54.5v-37Z" fill="url(#writer-page)"/>
  <path d="M18 48.5c0-2.5 2-4.5 4.5-4.5H48v6H22.5a4.5 4.5 0 0 0-4.5 4.5v-6Z" fill="#BDF4E3"/>
  <g fill="#61BDA5" fill-opacity=".7">
    <rect x="24" y="22" width="16" height="2.8" rx="1.4"/>
    <rect x="24" y="28" width="12" height="2.8" rx="1.4"/>
    <rect x="24" y="34" width="8" height="2.8" rx="1.4"/>
  </g>
  <path d="m33.5 39.8 3.2-8.2L49.8 18.5a3.4 3.4 0 0 1 4.8 4.8L41.5 36.4l-8 3.4Z" fill="url(#writer-pen)"/>
  <path d="m36.7 31.6 4.8 4.8M49.8 18.5l4.8 4.8" fill="none" stroke="#D97054" stroke-width="1.8"/>
  <path d="m33.5 39.8 2-5 3 3-5 2Z" fill="#6B5A55"/>
  <path d="M48 10.5v5M45.5 13h5" fill="none" stroke="#FFF4B8" stroke-width="2" stroke-linecap="round"/>
</svg>
